# xmcd
# 
# Track frame offsets:
#     150
#     17362
#     34402
#     48122
#     63925
#     75210
#     88625
#     105092
#     119830
# 
# Disc length: 2043
# 
# Revision: 4
# Processed by: cddbd v1.5.2PL0 Copyright (c) Steve Scherf et al.
# Submitted via: BonkEnc v1.0.8
# 
DISCID=5d07f909
DTITLE=The Jon Spencer Blues Explosion - Extra-Acme
DYEAR=1999
DGENRE=Blues Rock
TTITLE0=Wait A Minute
TTITLE1=Get Down Lover
TTITLE2=Confused (Zebra Ranch)
TTITLE3=Bacon (Sansano)
TTITLE4=Electricity
TTITLE5=New Year (Rough)
TTITLE6=Lovin' Machine (Automator)
TTITLE7=Chowder
TTITLE8=T.A.T.B. (For The Saints And Sinners Remix)
EXTD=
EXTT0=
EXTT1=
EXTT2=
EXTT3=
EXTT4=
EXTT5=
EXTT6=
EXTT7=
EXTT8=
PLAYORDER=
